<svg id="icons" height="512" viewBox="0 0 60 60" width="512" xmlns="http://www.w3.org/2000/svg"><path d="m52 30v.13l1 2.87-1.543 1.881a22.007 22.007 0 0 1 -42.914 0l-1.508-1.941.965-2.81v-.13a21.907 21.907 0 0 1 3.108-11.281l-.053-2.477 2.738-1.119a22 22 0 0 1 32.414 0l2.405 1.258.279 2.338a21.9 21.9 0 0 1 3.109 11.281z" fill="#9d9dee"/><path d="m35 27c0 2.209-2.239 3-5 3s-5-.791-5-3 2.239-4 5-4 5 1.791 5 4z" fill="#8488d2"/><path d="m21.808 21.435c-1.561.744-3.035.887-3.619-.395a2.965 2.965 0 0 1 1.77-3.675c1.562-.745 3.3-.314 3.882.968s-.48 2.349-2.033 3.102z" fill="#8488d2"/><path d="m35.7 17.184c-.73 1.2-2.2.94-3.71.1-1.5-.86-2.46-1.99-1.74-3.2a2.965 2.965 0 0 1 4.03-.64c1.504.856 2.144 2.53 1.42 3.74z" fill="#8488d2"/><path d="m44.753 23.353c-.609.951-1.836.745-3.1.08-1.253-.682-2.053-1.577-1.453-2.533a2.562 2.562 0 0 1 3.364-.507c1.256.678 1.79 2.007 1.189 2.96z" fill="#8488d2"/><path d="m8 29.9a48.357 48.357 0 0 0 4.13 2.94l3.48 2.1a84.12 84.12 0 0 0 11.42 5.31 70.439 70.439 0 0 0 19.678 4.663c3.505.256 10.851.486 12.142-3.963.84-2.93-1.85-6.88-6.85-10.85v.03a21.887 21.887 0 0 1 -.55 4.75 21.027 21.027 0 0 1 3.11 3.34 1.75 1.75 0 0 1 -1.069 2.7c-3.836.882-8.152.206-11.959-.536a77.362 77.362 0 0 1 -13.2-3.9 84 84 0 0 1 -10.36-4.83l-4.032-2.454c-3.078-2.01-6.354-4.382-8.5-7.42a1.75 1.75 0 0 1 1.07-2.7 18.1 18.1 0 0 1 4.25-.35c.11 0 .22 0 .35-.01a22 22 0 0 1 2.68-3.6c-6.87-.53-11.72.76-12.64 3.93-.84 2.93 1.85 6.88 6.85 10.85z" fill="#e2b654"/><circle cx="15" cy="32" fill="#fbe05e" r="3"/><circle cx="55.998" cy="42" fill="#fbe05e" r="3"/><path d="m52 29.9a48.357 48.357 0 0 1 -4.13 2.94l-3.48 2.1a84.12 84.12 0 0 1 -11.42 5.31 70.439 70.439 0 0 1 -19.678 4.663c-3.5.256-10.851.486-12.142-3.963-.84-2.93 1.85-6.88 6.85-10.85v.03a21.887 21.887 0 0 0 .55 4.75 21.027 21.027 0 0 0 -3.11 3.34 1.75 1.75 0 0 0 1.069 2.7c3.836.882 8.152.206 11.959-.536a77.362 77.362 0 0 0 13.2-3.9 84 84 0 0 0 10.36-4.83l4.03-2.45c3.078-2.01 6.354-4.382 8.5-7.42a1.75 1.75 0 0 0 -1.07-2.7 18.1 18.1 0 0 0 -4.25-.35c-.11 0-.22 0-.35-.01a22 22 0 0 0 -2.68-3.6c6.87-.53 11.72.76 12.64 3.93.842 2.926-1.848 6.876-6.848 10.846z" fill="#f4c95f"/><circle cx="45" cy="32" fill="#fbe05e" r="3"/><g fill="#373737"><path d="m53.454 30c4.985-4.173 7.24-8.137 6.354-11.229-1.023-3.522-5.7-5.177-13.2-4.677a22.988 22.988 0 0 0 -33.216 0c-7.492-.494-12.178 1.155-13.201 4.68-.885 3.089 1.371 7.054 6.355 11.226-4.985 4.173-7.24 8.137-6.354 11.229.908 3.114 4.663 4.771 10.698 4.771.792 0 1.632-.035 2.5-.093a23 23 0 0 0 29.836 2.913 1 1 0 1 0 -1.151-1.636 21 21 0 0 1 -26.064-1.519 72.869 72.869 0 0 0 13.972-3.3 68.309 68.309 0 0 0 16.146 3.51q1.554.121 2.96.122a22.733 22.733 0 0 0 5-.5 3.961 3.961 0 0 0 1.911.503 3.951 3.951 0 0 0 3.859-5c.718-3.053-1.538-6.925-6.405-11zm4.277 8.411a3.289 3.289 0 0 0 -2.126-.371 2.577 2.577 0 0 0 -.23-.4 21.093 21.093 0 0 0 -2.834-3.111 22.171 22.171 0 0 0 .35-2.378c2.561 2.27 4.231 4.443 4.84 6.26zm-7.138 1.843a22.66 22.66 0 0 0 1.391-3.49 16.466 16.466 0 0 1 1.716 1.973 4.019 4.019 0 0 0 -1.187 1.342 16.323 16.323 0 0 1 -1.92.175zm-3.593-8.254a2 2 0 1 1 -2-2 2 2 0 0 1 2 2zm-2 4a4 4 0 0 0 3.709-2.521q1.126-.727 2.191-1.5a20.207 20.207 0 0 1 -.425 2.682 20.714 20.714 0 0 1 -2.144 5.57 50.171 50.171 0 0 1 -9.326-1.431q2.92-1.344 5.6-2.841a3.922 3.922 0 0 0 .395.041zm12.887-16.675c.675 2.358-1.759 6.019-6.513 9.794-.8.637-1.651 1.253-2.524 1.856a3.986 3.986 0 0 0 -1-1.778 43.989 43.989 0 0 0 4.268-3.332 22.175 22.175 0 0 0 3.262-3.51 2.716 2.716 0 0 0 .311-2.538 2.777 2.777 0 0 0 -1.977-1.712 18.832 18.832 0 0 0 -4.275-.373c-.374-.589-.764-1.164-1.185-1.713 5.424-.137 8.98 1.057 9.633 3.306zm-5.9 3.912a22.672 22.672 0 0 0 -1.389-3.49 14.81 14.81 0 0 1 2.671.308.773.773 0 0 1 .556.478.7.7 0 0 1 -.079.67 16.406 16.406 0 0 1 -1.763 2.034zm-37.461-7.437a21.012 21.012 0 0 1 30.948 0 21.34 21.34 0 0 1 2.577 3.455 20.733 20.733 0 0 1 2.272 5.516 44.665 44.665 0 0 1 -4.434 3.34 3.948 3.948 0 0 0 -.889-.111 4 4 0 0 0 -3.855 2.989 83.613 83.613 0 0 1 -9.837 4.56c-.441.171-.88.325-1.321.488-.431-.158-.859-.317-1.295-.488a83.711 83.711 0 0 1 -9.837-4.56 4 4 0 0 0 -3.855-2.989 3.948 3.948 0 0 0 -.889.108 44.9 44.9 0 0 1 -4.434-3.341 20.761 20.761 0 0 1 2.27-5.512 21.362 21.362 0 0 1 2.579-3.455zm-6.509 20.964a22.773 22.773 0 0 0 1.389 3.49 14.824 14.824 0 0 1 -2.671-.309.773.773 0 0 1 -.556-.478.7.7 0 0 1 .079-.67 16.254 16.254 0 0 1 1.759-2.033zm3.648 3.461a20.746 20.746 0 0 1 -2.142-5.573 19.881 19.881 0 0 1 -.423-2.669q1.058.766 2.192 1.507a4 4 0 0 0 3.708 2.51 3.912 3.912 0 0 0 .392-.04c1.8 1 3.668 1.953 5.6 2.841a50.49 50.49 0 0 1 -9.327 1.424zm3.335-6.225a2 2 0 1 1 2-2 2 2 0 0 1 -2 2zm9.076 3.983c-2.2-.936-4.335-1.957-6.381-3.047a3.978 3.978 0 0 0 1.095-1.717 85.685 85.685 0 0 0 8.3 3.834q-1.521.501-3.014.93zm-16.059-14.747a16.272 16.272 0 0 1 -1.757-2.031.7.7 0 0 1 -.081-.672.774.774 0 0 1 .555-.478 14.808 14.808 0 0 1 2.672-.307 22.649 22.649 0 0 0 -1.389 3.488zm-5.9-3.908c.655-2.253 4.212-3.447 9.637-3.31-.421.55-.811 1.125-1.186 1.714a19.15 19.15 0 0 0 -4.275.373 2.777 2.777 0 0 0 -1.976 1.712 2.715 2.715 0 0 0 .313 2.54 22.149 22.149 0 0 0 3.261 3.509 44.209 44.209 0 0 0 4.267 3.33 3.989 3.989 0 0 0 -1 1.781c-.881-.611-1.736-1.23-2.525-1.86-4.761-3.773-7.195-7.434-6.521-9.789zm0 21.347c-.6-2.091 1.254-5.209 5-8.521a21.778 21.778 0 0 0 .351 2.378 21.2 21.2 0 0 0 -2.837 3.113 2.716 2.716 0 0 0 -.311 2.538 2.777 2.777 0 0 0 1.969 1.717 18.332 18.332 0 0 0 4 .378h.472c.138 0 .278 0 .354-.01 5.75-.143 13.374-1.909 20.917-4.848a86.215 86.215 0 0 0 9.177-4.193 3.975 3.975 0 0 0 1.091 1.703 84.3 84.3 0 0 1 -9.682 4.385 70.724 70.724 0 0 1 -18.9 4.568c-6.531.507-10.875-.695-11.605-3.208zm44.171 3.208a63.055 63.055 0 0 1 -13.17-2.622l.212-.076c.918-.349 1.818-.714 2.71-1.085a54.78 54.78 0 0 0 12.785 2.156c.139.012.265.009.4.014h.509a22.291 22.291 0 0 0 2.282-.113 3.964 3.964 0 0 0 .419 1.617 28.561 28.561 0 0 1 -6.151.109zm9.712.117a2 2 0 1 1 2-2 2 2 0 0 1 -2 2z"/><path d="m30 31c5.415 0 6-2.8 6-4 0-2.757-2.691-5-6-5s-6 2.243-6 5c0 1.2.585 4 6 4zm0-7c2.206 0 4 1.346 4 3s-2.175 2-4 2-4-.347-4-2 1.794-3 4-3z"/><path d="m18.73 22.829a2.982 2.982 0 0 0 1.024.171 5.9 5.9 0 0 0 2.485-.663h.006c3.326-1.613 2.862-3.622 2.506-4.415a3.234 3.234 0 0 0 -1.864-1.685 4.387 4.387 0 0 0 -3.363.23 3.926 3.926 0 0 0 -2.246 4.991 2.536 2.536 0 0 0 1.452 1.371zm1.66-4.562a2.669 2.669 0 0 1 1.137-.267 1.984 1.984 0 0 1 .675.112 1.244 1.244 0 0 1 .727.629c.332.741-.829 1.44-1.554 1.791a3.017 3.017 0 0 1 -1.96.417.525.525 0 0 1 -.314-.319 2.02 2.02 0 0 1 1.289-2.363z"/><path d="m31.508 18.158a5.675 5.675 0 0 0 2.71.842 2.647 2.647 0 0 0 2.341-1.3v-.008a3.221 3.221 0 0 0 .321-2.485 4.4 4.4 0 0 0 -2.1-2.636 3.925 3.925 0 0 0 -5.384 1 2.527 2.527 0 0 0 -.3 1.973 4.623 4.623 0 0 0 2.412 2.614zm-.4-3.554a1.556 1.556 0 0 1 1.372-.649 2.67 2.67 0 0 1 1.307.356 2.416 2.416 0 0 1 1.162 1.407 1.238 1.238 0 0 1 -.1.95c-.405.652-1.51.22-2.357-.251a3.055 3.055 0 0 1 -1.464-1.379.52.52 0 0 1 .08-.438z"/><path d="m41.189 24.317a5.05 5.05 0 0 0 2.324.683 2.385 2.385 0 0 0 2.082-1.1l.006-.009a2.676 2.676 0 0 0 .3-2.121 3.7 3.7 0 0 0 -1.861-2.254 3.533 3.533 0 0 0 -4.686.855 2.165 2.165 0 0 0 -.288 1.726 3.892 3.892 0 0 0 2.123 2.22zm-.143-2.88a1.2 1.2 0 0 1 1.024-.437 2.155 2.155 0 0 1 1.019.267 1.735 1.735 0 0 1 .881 1 .68.68 0 0 1 -.062.547c-.3.458-1.444-.089-1.773-.263-.993-.541-1.119-.928-1.13-.97-.005-.019-.016-.054.041-.144z"/></g></svg>